<?xml version="1.0" standalone="no"?><!DOCTYPE svg PUBLIC "-//W3C//DTD SVG 1.1//EN" "http://www.w3.org/Graphics/SVG/1.1/DTD/svg11.dtd"><svg t="1649223936979" class="icon" viewBox="0 0 1024 1024" version="1.1" xmlns="http://www.w3.org/2000/svg" p-id="6155" xmlns:xlink="http://www.w3.org/1999/xlink" width="200" height="200"><defs><style type="text/css">@font-face { font-family: feedback-iconfont; src: url("//at.alicdn.com/t/font_1031158_u69w8yhxdu.woff2?t=1630033759944") format("woff2"), url("//at.alicdn.com/t/font_1031158_u69w8yhxdu.woff?t=1630033759944") format("woff"), url("//at.alicdn.com/t/font_1031158_u69w8yhxdu.ttf?t=1630033759944") format("truetype"); }
</style></defs><path d="M372 891.2c-178.4 0-327.2-70.4-363.2-163.2C3.2 742.4 0 756.8 0 772.8c0 115.2 166.4 208 372 208S744 888 744 772.8c0-15.2-3.2-30.4-8.8-44.8-36 93.6-184.8 163.2-363.2 163.2z" fill="#666666" p-id="6156"></path><path d="M372 764.8c-178.4 0-327.2-70.4-363.2-163.2C3.2 616 0 630.4 0 646.4c0 115.2 166.4 208 372 208S744 760.8 744 646.4c0-15.2-3.2-30.4-8.8-44.8-36 92.8-184.8 163.2-363.2 163.2z" fill="#666666" p-id="6157"></path><path d="M372 638.4C194.4 638.4 45.6 568 8.8 474.4 3.2 488.8 0 504 0 519.2c0 115.2 166.4 208 372 208S744 634.4 744 519.2c0-15.2-3.2-30.4-8.8-44.8C699.2 568 550.4 638.4 372 638.4z" fill="#666666" p-id="6158"></path><path d="M8 380a372 208 0 1 0 744 0 372 208 0 1 0-744 0Z" fill="#666666" p-id="6159"></path><path d="M887.2 848c-64 0-117.6-25.6-131.2-59.2-2.4 5.6-3.2 10.4-3.2 16 0 41.6 60 75.2 134.4 75.2s134.4-33.6 134.4-75.2c0-5.6-0.8-11.2-3.2-16-13.6 33.6-67.2 59.2-131.2 59.2z" fill="#666666" p-id="6160"></path><path d="M887.2 802.4c-64 0-117.6-25.6-131.2-59.2-2.4 5.6-3.2 10.4-3.2 16 0 41.6 60 75.2 134.4 75.2s134.4-33.6 134.4-75.2c0-5.6-0.8-11.2-3.2-16-13.6 33.6-67.2 59.2-131.2 59.2z" fill="#666666" p-id="6161"></path><path d="M887.2 756.8c-64 0-117.6-25.6-131.2-59.2-2.4 5.6-3.2 10.4-3.2 16 0 41.6 60 75.2 134.4 75.2s134.4-33.6 134.4-75.2c0-5.6-0.8-11.2-3.2-16-13.6 33.6-67.2 59.2-131.2 59.2z" fill="#666666" p-id="6162"></path><path d="M755.2 663.2a134.4 75.2 0 1 0 268.8 0 134.4 75.2 0 1 0-268.8 0Z" fill="#666666" p-id="6163"></path></svg>