<?xml version="1.0" standalone="no"?><!DOCTYPE svg PUBLIC "-//W3C//DTD SVG 1.1//EN" "http://www.w3.org/Graphics/SVG/1.1/DTD/svg11.dtd"><svg t="1649224045108" class="icon" viewBox="0 0 1024 1024" version="1.1" xmlns="http://www.w3.org/2000/svg" p-id="6962" xmlns:xlink="http://www.w3.org/1999/xlink" width="200" height="200"><defs><style type="text/css">@font-face { font-family: feedback-iconfont; src: url("//at.alicdn.com/t/font_1031158_u69w8yhxdu.woff2?t=1630033759944") format("woff2"), url("//at.alicdn.com/t/font_1031158_u69w8yhxdu.woff?t=1630033759944") format("woff"), url("//at.alicdn.com/t/font_1031158_u69w8yhxdu.ttf?t=1630033759944") format("truetype"); }
</style></defs><path d="M705.097143 512c15.798857 0 30.939429 5.558857 43.885714 15.652571l19.017143 16.822858 1.243429 1.316571 10.313142-8.996571 2.706286-2.706286a69.924571 69.924571 0 0 1 69.046857-19.382857l8.996572 3.145143 4.973714 3.291428 53.686857 30.72 7.899429 6.217143 5.266285 4.827429c16.457143 17.554286 22.893714 42.422857 16.822858 65.243428l-4.169143 12.141714-0.731429 3.657143 0.658286 4.900572a14.921143 14.921143 0 0 0 8.411428 9.874285l4.022858 0.731429h1.901714c35.181714 0 58.514286 28.818286 59.830857 64.585143l0.146286-1.316572 1.682285 11.337143c0.877714 7.021714 1.609143 13.897143 2.048 20.48l0.512 13.824-0.512 13.897143-0.877714 10.020572-3.803428 28.525714c-5.339429 27.574857-23.698286 50.468571-51.053715 54.710857l-9.435428 0.731429h-1.974857c-5.339429 0-10.532571 4.315429-12.361143 10.971428l-0.731429 5.266286 1.609143 5.924571c10.898286 26.038857 5.266286 55.003429-10.971429 72.777143l-7.094857 6.582857-8.630857 6.582857-64.292571 37.449143h-5.851429l-8.923428 1.682286a68.022857 68.022857 0 0 1-52.882286-16.091429l-10.605714-10.825142-7.899429-7.094858-1.170286-1.243428-0.950857 1.243428-9.362286 8.484572-3.218285 3.218286a69.997714 69.997714 0 0 1-68.242286 20.041142l-9.142857-2.998857-5.924572-4.022857-0.292571 0.658286-52.370286-31.158857-7.168-5.558857-5.778285-5.266286a69.778286 69.778286 0 0 1-16.822858-65.243429l4.169143-12.141714 0.804572-3.657143-0.731429-5.12a14.994286 14.994286 0 0 0-8.411428-10.166857l-3.949715-0.731429h-1.974857c-32.841143 0-54.052571-24.868571-60.708571-63.634285l-0.146286 1.389714-1.755429-11.337143-1.170285-10.459428-1.243429-17.115429v-13.531429l1.243429-17.188571 3.803428-28.525714c5.339429-27.501714 23.698286-50.468571 51.053715-54.710857l11.410285-0.731429c5.339429 0 10.532571-4.242286 12.434286-10.605714l0.658286-4.973715-0.731429-3.657142-1.462857-3.876572c-9.654857-25.746286-3.803429-54.125714 12.214857-71.460571l6.948572-6.436572 8.630857-6.582857 55.296-32.182857 0.219428 0.438857 5.046857-3.291428a66.121143 66.121143 0 0 1 17.846858-4.827429L705.097143 512z m61.513143-512a182.857143 182.857143 0 0 1 182.491428 170.861714l0.365715 11.995429v252.342857a36.571429 36.571429 0 0 1-72.557715 6.582857l-0.585143-6.582857V182.857143a109.714286 109.714286 0 0 0-99.108571-109.202286L766.537143 73.142857H182.857143a109.714286 109.714286 0 0 0-109.202286 99.181714L73.142857 182.857143v657.846857a109.714286 109.714286 0 0 0 99.181714 109.202286l10.532572 0.512h328.411428a36.571429 36.571429 0 0 1 6.582858 72.557714l-6.582858 0.585143H182.857143A182.857143 182.857143 0 0 1 0.365714 852.845714L0 840.704V182.857143A182.857143 182.857143 0 0 1 170.861714 0.365714L182.857143 0h583.753143zM705.097143 586.313143l-1.755429 0.731428-44.324571 25.819429 1.316571 3.876571 2.413715 8.484572 0.804571 3.657143a73.142857 73.142857 0 0 1 1.682286 17.408l-0.731429 8.777143-0.731428 4.827428-2.194286 9.874286c-9.508571 32.914286-37.449143 58.733714-69.193143 62.683428l-4.534857 0.219429-2.194286 16.457143-1.024 11.995428-0.219428 8.338286 0.950857 13.897143 1.024 10.020571 1.462857 6.290286a11.995429 11.995429 0 0 1 0.219428 2.706286l-0.438857 1.097143 4.900572 0.512 3.949714 0.731428 13.019429 3.876572c22.674286 8.996571 39.789714 26.989714 48.566857 48.786285l3.291428 9.581715 1.974857 9.508571 0.731429 5.046857a73.142857 73.142857 0 0 1 0.365714 17.115429l-1.316571 8.484571-0.731429 3.657143-2.413714 8.411429-1.609143 4.388571 39.570286 23.552 3.510857 1.462857 4.973714-4.754285 5.851429-5.412572 0.658286-0.731428a73.142857 73.142857 0 0 1 100.644571-4.973715l3.218286 3.145143 10.313143 9.508572 4.242285 4.461714 44.470857-25.819429-2.267428-6.729143-1.609143-5.924571a73.142857 73.142857 0 0 1-2.486857-19.017143l0.658286-9.508571 0.731428-5.339429 2.048-10.020571c8.630857-30.793143 33.060571-55.588571 64.804572-62.464l9.069714-1.462857 2.340571-17.408 0.658286-6.582858 0.512-8.557714-0.438857-11.629714-1.389714-14.189714a86.528 86.528 0 0 1-1.755429-8.996572l-0.438857-4.681143-2.998857-0.219428-3.949715-0.731429-12.873142-3.803428A87.478857 87.478857 0 0 1 877.714286 678.765714l-3.291429-9.508571-2.194286-9.654857-0.658285-4.827429a73.142857 73.142857 0 0 1-0.512-17.554286l1.389714-8.630857 0.731429-3.657143 2.340571-8.338285 1.609143-4.388572-44.251429-25.526857-5.558857 5.485714-10.313143 8.923429a73.142857 73.142857 0 0 1-94.939428 0.731429l-17.115429-15.506286zM400.896 730.989714a36.571429 36.571429 0 1 1 0 73.142857h-146.285714a36.571429 36.571429 0 0 1 0-73.142857h146.285714z m365.860571 0c20.48 0.292571 36.717714 16.603429 36.425143 36.571429 0 20.333714-16.310857 36.571429-36.425143 36.571428a36.498286 36.498286 0 0 1-36.717714-36.571428c0-19.968 16.310857-36.278857 36.717714-36.571429z m-292.717714-219.428571a36.571429 36.571429 0 1 1 0 73.142857h-219.428571a36.571429 36.571429 0 0 1 0-73.142857h219.428571z m219.428572-219.428572a36.571429 36.571429 0 1 1 0 73.142858h-438.857143a36.571429 36.571429 0 0 1 0-73.142858h438.857143z" p-id="6963"></path></svg>